<mxfile host="app.diagrams.net" agent="Mozilla/5.0 (Windows NT 10.0; Win64; x64) AppleWebKit/537.36 (KHTML, like Gecko) Chrome/129.0.0.0 Safari/537.36" version="24.7.17">
  <diagram name="Page-1" id="AHJWFLgdNLBavc0o0Qxy">
    <mxGraphModel dx="1050" dy="1622" grid="1" gridSize="10" guides="1" tooltips="1" connect="1" arrows="1" fold="1" page="1" pageScale="1" pageWidth="850" pageHeight="1100" math="0" shadow="0">
      <root>
        <mxCell id="0" />
        <mxCell id="1" parent="0" />
        <mxCell id="koVJvfFal3RntIzGQks3-9" value="book" style="swimlane;whiteSpace=wrap;html=1;" parent="1" vertex="1">
          <mxGeometry x="260" y="120" width="280" height="260" as="geometry" />
        </mxCell>
        <mxCell id="koVJvfFal3RntIzGQks3-10" value="book_id" style="text;html=1;align=center;verticalAlign=middle;whiteSpace=wrap;rounded=0;" parent="koVJvfFal3RntIzGQks3-9" vertex="1">
          <mxGeometry x="70" y="30" width="60" height="30" as="geometry" />
        </mxCell>
        <mxCell id="koVJvfFal3RntIzGQks3-19" value="PK" style="text;html=1;align=center;verticalAlign=middle;whiteSpace=wrap;rounded=0;" parent="koVJvfFal3RntIzGQks3-9" vertex="1">
          <mxGeometry y="30" width="60" height="30" as="geometry" />
        </mxCell>
        <mxCell id="koVJvfFal3RntIzGQks3-20" value="FK" style="text;html=1;align=center;verticalAlign=middle;whiteSpace=wrap;rounded=0;" parent="koVJvfFal3RntIzGQks3-9" vertex="1">
          <mxGeometry x="2.5" y="230" width="60" height="30" as="geometry" />
        </mxCell>
        <mxCell id="koVJvfFal3RntIzGQks3-23" value="FK" style="text;html=1;align=center;verticalAlign=middle;whiteSpace=wrap;rounded=0;" parent="koVJvfFal3RntIzGQks3-9" vertex="1">
          <mxGeometry x="2.5" y="190" width="60" height="30" as="geometry" />
        </mxCell>
        <mxCell id="koVJvfFal3RntIzGQks3-25" value="SERIAL" style="text;html=1;align=center;verticalAlign=middle;whiteSpace=wrap;rounded=0;" parent="koVJvfFal3RntIzGQks3-9" vertex="1">
          <mxGeometry x="140" y="30" width="60" height="30" as="geometry" />
        </mxCell>
        <mxCell id="koVJvfFal3RntIzGQks3-33" value="NOT NULL" style="text;html=1;align=center;verticalAlign=middle;whiteSpace=wrap;rounded=0;" parent="koVJvfFal3RntIzGQks3-9" vertex="1">
          <mxGeometry x="190" y="30" width="80" height="30" as="geometry" />
        </mxCell>
        <mxCell id="koVJvfFal3RntIzGQks3-36" value="NOT NULL" style="text;html=1;align=center;verticalAlign=middle;whiteSpace=wrap;rounded=0;" parent="koVJvfFal3RntIzGQks3-9" vertex="1">
          <mxGeometry x="197.5" y="50" width="65" height="30" as="geometry" />
        </mxCell>
        <mxCell id="koVJvfFal3RntIzGQks3-44" value="FK" style="text;html=1;align=center;verticalAlign=middle;whiteSpace=wrap;rounded=0;" parent="koVJvfFal3RntIzGQks3-9" vertex="1">
          <mxGeometry x="2.5" y="210" width="60" height="30" as="geometry" />
        </mxCell>
        <mxCell id="koVJvfFal3RntIzGQks3-49" value="" style="group" parent="koVJvfFal3RntIzGQks3-9" vertex="1" connectable="0">
          <mxGeometry x="68" y="190" width="195" height="70" as="geometry" />
        </mxCell>
        <mxCell id="koVJvfFal3RntIzGQks3-17" value="image_id" style="text;html=1;align=center;verticalAlign=middle;whiteSpace=wrap;rounded=0;" parent="koVJvfFal3RntIzGQks3-49" vertex="1">
          <mxGeometry y="40" width="60" height="30" as="geometry" />
        </mxCell>
        <mxCell id="koVJvfFal3RntIzGQks3-18" value="review_id" style="text;html=1;align=center;verticalAlign=middle;whiteSpace=wrap;rounded=0;" parent="koVJvfFal3RntIzGQks3-49" vertex="1">
          <mxGeometry width="60" height="30" as="geometry" />
        </mxCell>
        <mxCell id="koVJvfFal3RntIzGQks3-13" value="genre_id" style="text;html=1;align=center;verticalAlign=middle;whiteSpace=wrap;rounded=0;" parent="koVJvfFal3RntIzGQks3-49" vertex="1">
          <mxGeometry y="20" width="60" height="30" as="geometry" />
        </mxCell>
        <mxCell id="koVJvfFal3RntIzGQks3-26" value="int" style="text;html=1;align=center;verticalAlign=middle;whiteSpace=wrap;rounded=0;" parent="koVJvfFal3RntIzGQks3-49" vertex="1">
          <mxGeometry x="60" width="60" height="30" as="geometry" />
        </mxCell>
        <mxCell id="koVJvfFal3RntIzGQks3-27" value="int" style="text;html=1;align=center;verticalAlign=middle;whiteSpace=wrap;rounded=0;" parent="koVJvfFal3RntIzGQks3-49" vertex="1">
          <mxGeometry x="60" y="20" width="60" height="30" as="geometry" />
        </mxCell>
        <mxCell id="koVJvfFal3RntIzGQks3-32" value="int" style="text;html=1;align=center;verticalAlign=middle;whiteSpace=wrap;rounded=0;" parent="koVJvfFal3RntIzGQks3-49" vertex="1">
          <mxGeometry x="60" y="40" width="60" height="30" as="geometry" />
        </mxCell>
        <mxCell id="koVJvfFal3RntIzGQks3-34" value="NOT NULL" style="text;html=1;align=center;verticalAlign=middle;whiteSpace=wrap;rounded=0;" parent="koVJvfFal3RntIzGQks3-49" vertex="1">
          <mxGeometry x="120" width="70" height="30" as="geometry" />
        </mxCell>
        <mxCell id="koVJvfFal3RntIzGQks3-40" value="NULL" style="text;html=1;align=center;verticalAlign=middle;whiteSpace=wrap;rounded=0;" parent="koVJvfFal3RntIzGQks3-49" vertex="1">
          <mxGeometry x="125" y="20" width="60" height="30" as="geometry" />
        </mxCell>
        <mxCell id="koVJvfFal3RntIzGQks3-43" value="NULL" style="text;html=1;align=center;verticalAlign=middle;whiteSpace=wrap;rounded=0;" parent="koVJvfFal3RntIzGQks3-49" vertex="1">
          <mxGeometry x="127.5" y="40" width="60" height="30" as="geometry" />
        </mxCell>
        <mxCell id="koVJvfFal3RntIzGQks3-14" value="year_published" style="text;html=1;align=center;verticalAlign=middle;whiteSpace=wrap;rounded=0;" parent="koVJvfFal3RntIzGQks3-9" vertex="1">
          <mxGeometry x="70" y="160" width="60" height="30" as="geometry" />
        </mxCell>
        <mxCell id="koVJvfFal3RntIzGQks3-53" value="int" style="text;html=1;align=center;verticalAlign=middle;whiteSpace=wrap;rounded=0;" parent="koVJvfFal3RntIzGQks3-9" vertex="1">
          <mxGeometry x="130" y="160" width="60" height="30" as="geometry" />
        </mxCell>
        <mxCell id="koVJvfFal3RntIzGQks3-54" value="NULL" style="text;html=1;align=center;verticalAlign=middle;whiteSpace=wrap;rounded=0;" parent="koVJvfFal3RntIzGQks3-9" vertex="1">
          <mxGeometry x="197.5" y="160" width="60" height="30" as="geometry" />
        </mxCell>
        <mxCell id="koVJvfFal3RntIzGQks3-35" value="NOT NULL" style="text;html=1;align=center;verticalAlign=middle;whiteSpace=wrap;rounded=0;" parent="1" vertex="1">
          <mxGeometry x="900" y="-260" width="70" height="30" as="geometry" />
        </mxCell>
        <mxCell id="koVJvfFal3RntIzGQks3-52" value="" style="group" parent="1" vertex="1" connectable="0">
          <mxGeometry x="320" y="180" width="210" height="110" as="geometry" />
        </mxCell>
        <mxCell id="koVJvfFal3RntIzGQks3-12" value="author" style="text;html=1;align=center;verticalAlign=middle;whiteSpace=wrap;rounded=0;" parent="koVJvfFal3RntIzGQks3-52" vertex="1">
          <mxGeometry y="20" width="66.31578947368422" height="30" as="geometry" />
        </mxCell>
        <mxCell id="koVJvfFal3RntIzGQks3-29" value="varchar (50)" style="text;html=1;align=center;verticalAlign=middle;whiteSpace=wrap;rounded=0;" parent="koVJvfFal3RntIzGQks3-52" vertex="1">
          <mxGeometry x="66.31578947368422" y="30" width="66.31578947368422" height="30" as="geometry" />
        </mxCell>
        <mxCell id="koVJvfFal3RntIzGQks3-37" value="NOT NULL" style="text;html=1;align=center;verticalAlign=middle;whiteSpace=wrap;rounded=0;" parent="koVJvfFal3RntIzGQks3-52" vertex="1">
          <mxGeometry x="138.1578947368421" y="20" width="71.8421052631579" height="30" as="geometry" />
        </mxCell>
        <mxCell id="koVJvfFal3RntIzGQks3-28" value="varchar (50)" style="text;html=1;align=center;verticalAlign=middle;whiteSpace=wrap;rounded=0;" parent="koVJvfFal3RntIzGQks3-52" vertex="1">
          <mxGeometry x="66.31578947368422" width="66.31578947368422" height="30" as="geometry" />
        </mxCell>
        <mxCell id="koVJvfFal3RntIzGQks3-11" value="title" style="text;html=1;align=center;verticalAlign=middle;whiteSpace=wrap;rounded=0;" parent="koVJvfFal3RntIzGQks3-52" vertex="1">
          <mxGeometry y="-10" width="66.31578947368422" height="30" as="geometry" />
        </mxCell>
        <mxCell id="koVJvfFal3RntIzGQks3-15" value="description" style="text;html=1;align=center;verticalAlign=middle;whiteSpace=wrap;rounded=0;" parent="koVJvfFal3RntIzGQks3-52" vertex="1">
          <mxGeometry y="70" width="66.31578947368422" height="30" as="geometry" />
        </mxCell>
        <mxCell id="koVJvfFal3RntIzGQks3-31" value="varchar (500)" style="text;html=1;align=center;verticalAlign=middle;whiteSpace=wrap;rounded=0;" parent="koVJvfFal3RntIzGQks3-52" vertex="1">
          <mxGeometry x="66.31578947368422" y="70" width="66.31578947368422" height="30" as="geometry" />
        </mxCell>
        <mxCell id="koVJvfFal3RntIzGQks3-39" value="NULL" style="text;html=1;align=center;verticalAlign=middle;whiteSpace=wrap;rounded=0;" parent="koVJvfFal3RntIzGQks3-52" vertex="1">
          <mxGeometry x="138.16105263157897" y="70" width="66.31578947368422" height="30" as="geometry" />
        </mxCell>
      </root>
    </mxGraphModel>
  </diagram>
</mxfile>
